<svg xmlns="http://www.w3.org/2000/svg" viewBox="0 0 320 200" width="320" height="200">
  <defs>
    <linearGradient id="sun" x1="0" y1="0" x2="0" y2="1">
      <stop offset="0" stop-color="#ffe14d"/>
      <stop offset="0.5" stop-color="#ff8a3d"/>
      <stop offset="1" stop-color="#ff2e97"/>
    </linearGradient>
    <linearGradient id="sky" x1="0" y1="0" x2="0" y2="1">
      <stop offset="0" stop-color="#1a0b2e"/>
      <stop offset="1" stop-color="#0d0211"/>
    </linearGradient>
  </defs>
  <rect width="320" height="200" fill="url(#sky)"/>
  <circle cx="160" cy="110" r="60" fill="url(#sun)"/>
  <g fill="#0d0211">
    <rect x="100" y="92" width="120" height="4"/>
    <rect x="100" y="104" width="120" height="5"/>
    <rect x="100" y="118" width="120" height="7"/>
    <rect x="100" y="134" width="120" height="9"/>
  </g>
  <g stroke="#b967ff" stroke-width="1" opacity="0.6">
    <line x1="0" y1="160" x2="320" y2="160"/>
    <line x1="0" y1="175" x2="320" y2="175"/>
    <line x1="0" y1="195" x2="320" y2="195"/>
    <line x1="160" y1="160" x2="160" y2="200"/>
    <line x1="110" y1="160" x2="60" y2="200"/>
    <line x1="210" y1="160" x2="260" y2="200"/>
    <line x1="60" y1="160" x2="-40" y2="200"/>
    <line x1="260" y1="160" x2="360" y2="200"/>
  </g>
</svg>
